<svg width="40" height="40" viewBox="0 0 40 40" fill="none" xmlns="http://www.w3.org/2000/svg">
<rect width="40" height="40" fill="#080A47"/>
<path d="M0 40C5.30433 40 10.3914 37.8929 14.1421 34.1421C17.8929 30.3914 20 25.3043 20 20C20 14.6957 17.8929 9.60859 14.1421 5.85787C10.3914 2.10714 5.30433 1.03279e-06 4.76837e-06 0L0 40Z" fill="#F480D4"/>
<path d="M39.7837 17.1336C36.7692 15.2018 33.1107 14.5467 29.6131 15.3123C26.1155 16.0779 23.0653 18.2016 21.1335 21.2162C19.2017 24.2308 18.5465 27.8893 19.3121 31.3869C20.0778 34.8845 22.2015 37.9347 25.216 39.8665L39.7837 17.1336Z" fill="#FFC947"/>
</svg>
