<svg width="54" height="54" viewBox="0 0 54 54" fill="none" xmlns="http://www.w3.org/2000/svg">
<circle cx="27" cy="27" r="27" fill="white"/>
<path d="M26.1111 41V13H27.8889V41H26.1111ZM32.0949 21.4C31.9648 20.2917 31.4372 19.4313 30.5122 18.8188C29.5872 18.2063 28.4526 17.9 27.1084 17.9C26.1256 17.9 25.2656 18.0604 24.5285 18.3813C23.7986 18.7021 23.2276 19.1432 22.8157 19.7047C22.411 20.2661 22.2087 20.9042 22.2087 21.6187C22.2087 22.2167 22.3496 22.7307 22.6314 23.1609C22.9205 23.5839 23.2891 23.9375 23.7371 24.2219C24.1852 24.499 24.6549 24.7286 25.1463 24.9109C25.6378 25.0859 26.0894 25.2281 26.5014 25.3375L28.7561 25.95C29.3342 26.1031 29.9774 26.3146 30.6856 26.5844C31.4011 26.8542 32.084 27.2224 32.7344 27.6891C33.3921 28.1484 33.9341 28.7391 34.3604 29.4609C34.7868 30.1828 35 31.0687 35 32.1187C35 33.3292 34.6856 34.4229 34.0569 35.4C33.4354 36.3771 32.5248 37.1536 31.3252 37.7297C30.1328 38.3057 28.6838 38.5938 26.9783 38.5938C25.3884 38.5938 24.0117 38.3349 22.8482 37.8172C21.692 37.2995 20.7814 36.5776 20.1165 35.6516C19.4589 34.7255 19.0867 33.65 19 32.425H21.7751C21.8473 33.2708 22.1292 33.9708 22.6206 34.525C23.1192 35.0719 23.748 35.4802 24.5068 35.75C25.2728 36.0125 26.0967 36.1437 26.9783 36.1437C28.0045 36.1437 28.9259 35.976 29.7425 35.6406C30.5592 35.2979 31.206 34.824 31.6829 34.2187C32.1599 33.6062 32.3984 32.8917 32.3984 32.075C32.3984 31.3312 32.1924 30.726 31.7805 30.2594C31.3686 29.7927 30.8266 29.4135 30.1545 29.1219C29.4824 28.8302 28.7561 28.575 27.9756 28.3562L25.2439 27.5687C23.5095 27.0656 22.1364 26.3474 21.1247 25.4141C20.1129 24.4807 19.607 23.2594 19.607 21.75C19.607 20.4958 19.9431 19.4021 20.6152 18.4688C21.2945 17.5281 22.2051 16.799 23.3469 16.2813C24.4959 15.7563 25.7787 15.4938 27.1951 15.4938C28.626 15.4938 29.8979 15.7526 31.0108 16.2703C32.1238 16.7807 33.0054 17.4807 33.6558 18.3703C34.3135 19.2599 34.6603 20.2698 34.6965 21.4H32.0949Z" fill="#FAEA73"/>
</svg>
