<svg width="97" height="98" viewBox="0 0 97 98" fill="none" xmlns="http://www.w3.org/2000/svg">
<path d="M18.5605 1.36743C16.0604 0.367571 10.0602 1.36774 7.56048 4.86743C5.0608 8.36713 0.417284 32.3678 1.06048 38.8674C1.70368 45.3671 2.5605 45.2048 5.06048 46.3674C7.56047 47.5301 14.5604 35.3678 16.0605 26.3674C17.5605 17.3671 21.0605 2.3673 18.5605 1.36743Z" fill="#FFDE70" stroke="#FFDE70"/>
<path d="M26.3337 61.7359C25.3334 65.2359 23.914 67.5855 26.3337 69.2359C28.3017 70.5782 32.1057 68.2114 32.7423 67.7965C32.8048 67.7557 32.8512 67.7171 32.9019 67.6624C33.9211 66.5639 46.1082 53.4189 52.3337 46.2359C58.834 38.7359 70.334 23.735 67.3337 22.7359C64.3335 21.7368 59.3338 21.2371 55.3337 24.7359C51.3336 28.2347 27.334 58.2359 26.3337 61.7359Z" fill="#FFDE70" stroke="#FFDE70"/>
<path d="M95.2948 80.1493C95.9246 82.3283 85.3433 85.998 71.4442 90.0156C57.5452 94.0332 45.4248 94.3274 44.7949 92.1484C44.1651 89.9695 55.2643 86.1424 69.1634 82.1249C83.0624 78.1073 94.6649 77.9704 95.2948 80.1493Z" fill="#FFDE70"/>
</svg>
