<svg width="28" height="32" viewBox="0 0 28 32" fill="none" xmlns="http://www.w3.org/2000/svg">
<path fill-rule="evenodd" clip-rule="evenodd" d="M12.504 0.00703806C13.6785 0.108145 15.193 0.927285 16.0043 2.50706C16.7961 4.04861 16.3924 5.25247 16.5043 7.37219C16.6325 9.79957 17.004 11.007 16.0043 12.507C15.504 13.007 15.004 13.007 14.0043 13.007C12.6454 12.946 11.9061 12.8954 11.0045 11.007C10.1496 9.21658 9.96849 8.89859 10.0042 6.50704C10.0387 4.19552 9.88291 4.37161 10.5043 2.50706C11.004 1.00781 11.2707 -0.099122 12.504 0.00703806Z" fill="#F480D4"/>
<path fill-rule="evenodd" clip-rule="evenodd" d="M12.504 18.0149C13.6785 18.116 15.193 18.9351 16.0043 20.5149C16.7961 22.0564 16.3924 23.2603 16.5043 25.38C16.6325 27.8074 17.004 29.0149 16.0043 30.5149C15.504 31.0149 15.004 31.0149 14.0043 31.0149C12.6454 30.9538 11.9061 30.9032 11.0045 29.0149C10.1496 27.2244 9.96849 26.9064 10.0042 24.5149C10.0387 22.2033 9.88291 22.3794 10.5043 20.5149C11.004 19.0156 11.2707 17.9087 12.504 18.0149Z" fill="#F480D4"/>
<path fill-rule="evenodd" clip-rule="evenodd" d="M20.7911 13.2279C21.822 13.2596 23.7911 12.7279 24.8128 13.2946C25.5761 14.1586 27.5375 14.1549 27.3128 15.2946C27.291 17.2305 25.3948 16.368 24.3131 16.7997C21.2911 17.2255 21.3131 16.7997 19.3131 16.7997C18.2518 16.3541 16.6588 16.3975 16.3784 15.2635C16.0935 14.111 16.51 14.1136 17.291 13.2307C18.291 12.7305 19.7229 13.1952 20.7911 13.2279Z" fill="#F480D4"/>
<path fill-rule="evenodd" clip-rule="evenodd" d="M4.74756 13.2305C5.77844 13.2621 7.74922 12.9883 8.77093 13.555C9.53426 14.419 11.4956 14.4153 11.2709 15.555C10.2476 16.7302 8.27119 17.0601 8.27119 17.0601C5.24922 17.4859 6.24756 17.2302 4.61694 17.0601C3.55562 16.6145 2.24753 16.7302 1.24787 15.7302C0.248199 14.7302 -0.444491 14.1125 0.336504 13.2296C1.3365 12.7294 3.67934 13.1977 4.74756 13.2305Z" fill="#F480D4"/>
</svg>
