<svg width="52" height="52" viewBox="0 0 52 52" fill="none" xmlns="http://www.w3.org/2000/svg">
<path d="M25.9919 22.9072L24.1575 20.767C23.7954 20.3447 23.1583 20.2989 22.7397 20.6653L20.2526 22.8415C19.8369 23.2052 19.7948 23.8369 20.1585 24.2526L22.5579 26.9948C22.8253 27.3003 22.8814 27.7373 22.6998 28.1005L21.2764 30.9472C21.107 31.286 20.7607 31.5 20.382 31.5H17C16.4477 31.5 16 31.9477 16 32.5V36C16 36.5523 16.4477 37 17 37H20.4458C20.7905 37 21.111 37.1776 21.2938 37.47L23.0488 40.278C23.3089 40.6942 23.2286 41.2375 22.8593 41.5606L20.2526 43.8415C19.8369 44.2052 19.7948 44.8369 20.1585 45.2526L22.3785 47.7897C22.7274 48.1885 23.3268 48.2458 23.745 47.9206L27.0344 45.3622C27.3217 45.1387 27.7077 45.089 28.0422 45.2324L30.3939 46.2403C30.7616 46.3978 31 46.7594 31 47.1594V50.5C31 51.0523 31.4477 51.5 32 51.5H36C36.5523 51.5 37 51.0523 37 50.5V47.1594C37 46.7594 37.2384 46.3978 37.6061 46.2403L39.8777 45.2667C40.2536 45.1056 40.6896 45.1896 40.9787 45.4787L43.2929 47.7929C43.6834 48.1834 44.3166 48.1834 44.7071 47.7929L47.3333 45.1667C47.7077 44.7923 47.7253 44.191 47.3736 43.7953L44.5718 40.6433C44.2431 40.2735 44.2343 39.7189 44.551 39.3388L46.2002 37.3598C46.3901 37.1318 46.6716 37 46.9684 37H50C50.5523 37 51 36.5523 51 36V32.5C51 31.9477 50.5523 31.5 50 31.5H47.118C46.7393 31.5 46.393 31.286 46.2236 30.9472L44.8002 28.1005C44.6186 27.7373 44.6747 27.3003 44.9421 26.9948L47.3415 24.2526C47.7052 23.8369 47.6631 23.2052 47.2474 22.8415L44.7041 20.6161C44.3079 20.2694 43.7107 20.2893 43.3385 20.6615L41.0401 22.9599C40.7212 23.2788 40.2284 23.3448 39.8368 23.1211L37.5039 21.7879C37.1923 21.6099 37 21.2785 37 20.9197V18C37 17.4477 36.5523 17 36 17H31.895C31.3855 17 30.9574 17.3831 30.9012 17.8896L30.5601 20.9593C30.5226 21.2964 30.3168 21.5916 30.0134 21.7433L27.1983 23.1508C26.7879 23.356 26.2905 23.2556 25.9919 22.9072Z" fill="white" stroke="white"/>
<circle cx="33.5" cy="34.5" r="5.5" fill="#F7CEDC"/>
<path d="M22.7191 16.2407L16.4284 21.6328C16.1625 21.8607 16.0352 22.2111 16.0927 22.5565L16.8059 26.8356C16.9075 27.4451 16.4375 28 15.8195 28H12.8828C12.3785 28 11.9531 27.6245 11.8905 27.124L11.5426 24.3405C11.515 24.1198 11.4146 23.9146 11.2574 23.7574L10.2636 22.7636C9.85169 22.3517 9.17632 22.3776 8.79722 22.8199L7.20278 24.6801C6.82368 25.1224 6.14831 25.1483 5.73641 24.7364L4.14574 23.1457C3.78002 22.78 3.75352 22.1958 4.08463 21.7985L5.5453 20.0456C5.81759 19.7189 5.8534 19.2557 5.63457 18.891L4.7913 17.4855C4.61058 17.1843 4.28507 17 3.93381 17H2C1.44772 17 1 16.5523 1 16V13C1 12.4477 1.44772 12 2 12H4.5C5.05228 12 5.5 11.5523 5.5 11V9.80278C5.5 9.60535 5.44156 9.41234 5.33205 9.24808L3.99152 7.23729C3.71099 6.81648 3.78879 6.25246 4.17278 5.92333L6.23012 4.15989C6.65357 3.79694 7.2921 3.85051 7.64914 4.27896L8.9517 5.84204C9.26727 6.22073 9.81173 6.31296 10.2344 6.05935L11.5145 5.2913C11.8157 5.11058 12 4.78507 12 4.43381V2C12 1.44772 12.4477 1 13 1H16C16.5523 1 17 1.44772 17 2V4.38197C17 4.76074 17.214 5.107 17.5528 5.27639L19.4061 6.20306C19.766 6.38299 20.1986 6.32973 20.5041 6.06789L22.7301 4.15989C23.1536 3.79694 23.7921 3.85051 24.1491 4.27896L25.3686 5.74237C25.7187 6.16249 25.6664 6.78592 25.2512 7.14182L23.1412 8.9504C22.7709 9.26778 22.6836 9.80597 22.9345 10.2242L23.7087 11.5145C23.8894 11.8157 24.2149 12 24.5662 12H27C27.5523 12 28 12.4477 28 13V15C28 15.5523 27.5523 16 27 16H23.3699C23.1312 16 22.9004 16.0854 22.7191 16.2407Z" fill="white" stroke="white"/>
<circle cx="14" cy="14" r="4" fill="#F7CEDC"/>
</svg>
