<svg width="93" height="29" viewBox="0 0 93 29" fill="none" xmlns="http://www.w3.org/2000/svg">
<path d="M0 25.9987C2.50006 17.6658 2.50006 12.1662 0 3C13.3336 6.33316 21.6672 11.8328 25 26L0 25.9987Z" fill="#4F46E5"/>
<path d="M13 26C14.5 21 14.5 16.5 13 11C21 13 26 17.5 27.9997 26.0008L13 26Z" fill="#2DD4BF"/>
<path d="M49.9858 10.5653C49.9176 9.87784 49.625 9.34375 49.108 8.96307C48.5909 8.58239 47.8892 8.39204 47.0028 8.39204C46.4006 8.39204 45.892 8.47727 45.4773 8.64773C45.0625 8.8125 44.7443 9.04261 44.5227 9.33807C44.3068 9.63352 44.1989 9.96875 44.1989 10.3438C44.1875 10.6562 44.2528 10.929 44.3949 11.1619C44.5426 11.3949 44.7443 11.5966 45 11.767C45.2557 11.9318 45.5511 12.0767 45.8864 12.2017C46.2216 12.321 46.5795 12.4233 46.9602 12.5085L48.5284 12.8835C49.2898 13.054 49.9886 13.2812 50.625 13.5653C51.2614 13.8494 51.8125 14.1989 52.2784 14.6136C52.7443 15.0284 53.1051 15.517 53.3608 16.0795C53.6222 16.642 53.7557 17.2869 53.7614 18.0142C53.7557 19.0824 53.483 20.0085 52.9432 20.7926C52.4091 21.571 51.6364 22.1761 50.625 22.608C49.6193 23.0341 48.4063 23.2472 46.9858 23.2472C45.5767 23.2472 44.3494 23.0312 43.304 22.5994C42.2642 22.1676 41.4517 21.5284 40.8665 20.6818C40.2869 19.8295 39.983 18.7756 39.9545 17.5199H43.5256C43.5653 18.1051 43.733 18.5937 44.0284 18.9858C44.3295 19.3722 44.7301 19.6648 45.2301 19.8636C45.7358 20.0568 46.3068 20.1534 46.9432 20.1534C47.5682 20.1534 48.1108 20.0625 48.571 19.8807C49.0369 19.6989 49.3977 19.446 49.6534 19.1222C49.9091 18.7983 50.0369 18.4261 50.0369 18.0057C50.0369 17.6136 49.9205 17.2841 49.6875 17.017C49.4602 16.75 49.125 16.5227 48.6818 16.3352C48.2443 16.1477 47.7074 15.9773 47.071 15.8239L45.1705 15.3466C43.6989 14.9886 42.5369 14.429 41.6847 13.6676C40.8324 12.9062 40.4091 11.8807 40.4148 10.5909C40.4091 9.53409 40.6903 8.6108 41.2585 7.82102C41.8324 7.03125 42.6193 6.41477 43.6193 5.97159C44.6193 5.52841 45.7557 5.30682 47.0284 5.30682C48.3239 5.30682 49.4545 5.52841 50.4205 5.97159C51.392 6.41477 52.1477 7.03125 52.6875 7.82102C53.2273 8.6108 53.5057 9.52557 53.5227 10.5653H49.9858ZM59.9084 23.2472C59.0732 23.2472 58.3288 23.1023 57.6754 22.8125C57.022 22.517 56.505 22.0824 56.1243 21.5085C55.7493 20.929 55.5618 20.2074 55.5618 19.3438C55.5618 18.6165 55.6953 18.0057 55.9624 17.5114C56.2294 17.017 56.593 16.6193 57.0533 16.3182C57.5135 16.017 58.0362 15.7898 58.6214 15.6364C59.2124 15.483 59.8317 15.375 60.4794 15.3125C61.2408 15.233 61.8544 15.1591 62.3203 15.0909C62.7862 15.017 63.1243 14.9091 63.3345 14.767C63.5447 14.625 63.6499 14.4148 63.6499 14.1364V14.0852C63.6499 13.5455 63.4794 13.1278 63.1385 12.8324C62.8033 12.5369 62.326 12.3892 61.7067 12.3892C61.0533 12.3892 60.5334 12.5341 60.147 12.8239C59.7607 13.108 59.505 13.4659 59.38 13.8977L56.022 13.625C56.1925 12.8295 56.5277 12.142 57.0277 11.5625C57.5277 10.9773 58.1726 10.5284 58.9624 10.2159C59.7578 9.89773 60.6783 9.73864 61.7237 9.73864C62.451 9.73864 63.147 9.82386 63.8118 9.99432C64.4822 10.1648 65.076 10.429 65.593 10.7869C66.1158 11.1449 66.5277 11.6051 66.8288 12.1676C67.13 12.7244 67.2805 13.392 67.2805 14.1705V23H63.8374V21.1847H63.7351C63.5249 21.5938 63.2436 21.9545 62.8913 22.267C62.5391 22.5739 62.1158 22.8153 61.6214 22.9915C61.1271 23.1619 60.5561 23.2472 59.9084 23.2472ZM60.9482 20.7415C61.4822 20.7415 61.9538 20.6364 62.3629 20.4261C62.772 20.2102 63.093 19.9205 63.326 19.5568C63.5589 19.1932 63.6754 18.7812 63.6754 18.321V16.9318C63.5618 17.0057 63.4055 17.0739 63.2067 17.1364C63.0135 17.1932 62.7947 17.2472 62.5504 17.2983C62.3061 17.3437 62.0618 17.3864 61.8175 17.4261C61.5732 17.4602 61.3516 17.4915 61.1527 17.5199C60.7266 17.5824 60.3544 17.6818 60.0362 17.8182C59.718 17.9545 59.4709 18.1392 59.2947 18.3722C59.1186 18.5994 59.0305 18.8835 59.0305 19.2244C59.0305 19.7188 59.2095 20.0966 59.5675 20.358C59.9311 20.6136 60.3913 20.7415 60.9482 20.7415ZM70.0973 23V9.90909H73.6172V12.1932H73.7536C73.9922 11.3807 74.3928 10.767 74.9553 10.3523C75.5178 9.93182 76.1655 9.72159 76.8984 9.72159C77.0803 9.72159 77.2763 9.73295 77.4865 9.75568C77.6967 9.77841 77.8814 9.80966 78.0405 9.84943V13.071C77.87 13.0199 77.6342 12.9744 77.3331 12.9347C77.032 12.8949 76.7564 12.875 76.5064 12.875C75.9723 12.875 75.495 12.9915 75.0746 13.2244C74.6598 13.4517 74.3303 13.7699 74.0859 14.179C73.8473 14.5881 73.728 15.0597 73.728 15.5938V23H70.0973ZM83.2074 19.233L83.2159 14.8778H83.7443L87.9375 9.90909H92.1051L86.4716 16.4886H85.6108L83.2074 19.233ZM79.9176 23V5.54545H83.5483V23H79.9176ZM88.0994 23L84.2472 17.2983L86.6676 14.733L92.3523 23H88.0994Z" fill="#080A47"/>
</svg>
