<svg width="60" height="57" viewBox="0 0 60 57" fill="none" xmlns="http://www.w3.org/2000/svg">
<circle cx="20.5" cy="43.5" r="13.5" fill="#FB6A63"/>
<path d="M46 38C46 38 58.5 39 58.5 28C58.5 19.1606 51.074 18.0701 48.1568 17.9828C47.5456 17.9645 47.0216 17.4557 46.9922 16.845C46.8153 13.1718 45.0409 2 30 2C14.9652 2 13.1861 13.1628 13.008 16.8405C12.9783 17.4528 12.4517 17.9641 11.8394 17.9928C9.01238 18.1251 2 19.4189 2 29C2 41 14.5 39 14.5 39" stroke="black" stroke-width="3" stroke-linejoin="round"/>
<circle cx="30.5" cy="38.5" r="15" stroke="black" stroke-width="3"/>
<path d="M22 42.1797L26.2187 38.2381L20.6959 36.5554L22 42.1797ZM33 31.6797C33.2761 31.6797 33.5 31.4558 33.5 31.1797C33.5 30.9035 33.2761 30.6797 33 30.6797V31.6797ZM23.765 38.0858C25.5207 34.3073 28.7054 31.6797 33 31.6797V30.6797C28.224 30.6797 24.7349 33.6252 22.8581 37.6645L23.765 38.0858Z" fill="black"/>
<path d="M23 38.258C23 38.258 24.7226 34.7221 27 32.6829C29.7378 30.2315 33.5 31.1809 33.5 31.1809" stroke="black" stroke-width="2" stroke-linecap="round"/>
<path d="M39.5 36L35.2813 39.9416L40.8041 41.6243L39.5 36ZM28.5 46.5C28.2239 46.5 28 46.7239 28 47C28 47.2761 28.2239 47.5 28.5 47.5L28.5 46.5ZM37.735 40.0938C35.9793 43.8724 32.7946 46.5 28.5 46.5L28.5 47.5C33.276 47.5 36.7651 44.5545 38.6419 40.5152L37.735 40.0938Z" fill="black"/>
<path d="M38.5 39.9217C38.5 39.9217 36.7774 43.4576 34.5 45.4968C31.7622 47.9482 28 46.9988 28 46.9988" stroke="black" stroke-width="2" stroke-linecap="round"/>
</svg>
