<svg width="400" height="400" viewBox="0 0 400 400" fill="none" xmlns="http://www.w3.org/2000/svg">
<path d="M53 258L147 298L171 385L73 342L53 258Z" fill="#F2723C"/>
<path d="M147 298L212 222L239 308L171 385L147 298Z" fill="#E0581F"/>
<path d="M124 193L212 222L147 298L53 258L124 193Z" fill="#FF8E5E"/>
<path d="M279 282L338 268L384 308L324 326L279 282Z" fill="#E7E5E3"/>
<path d="M324 325.999L384 308L369 371L309 392L324 325.999Z" fill="#D6D2CD"/>
<path d="M279 282L324 326L309 392L265 342L279 282Z" fill="#C3C2C1"/>
<path d="M292 158L379 121L362 206L270 245L292 158Z" fill="#AED659"/>
<path d="M220 86L292 158L270 245L203 175L220 86Z" fill="#8FB441"/>
<path d="M220 86L307 58L379 121L292 158L220 86Z" fill="#D7F890"/>
<path d="M16 58L86 79L106 157L34 130L16 58Z" fill="#3E4048"/>
<path d="M86 79L139 31L160 100L106 157L86 79Z" fill="#595B67"/>
<path d="M74 8L139 31L86 79L16 58L74 8Z" fill="#515258"/>
</svg>
