<svg width="52" height="52" viewBox="0 0 52 52" fill="none" xmlns="http://www.w3.org/2000/svg">
<circle cx="38.5" cy="37.5" r="13.5" fill="#61A3F2"/>
<path d="M44.8682 9.36773C45.0955 9.39018 45.3064 9.40882 45.5 9.42429V30.7476C45.4967 30.7567 45.4932 30.7661 45.4897 30.7759C45.428 30.9442 45.3296 31.2004 45.1891 31.5319C44.908 32.1952 44.459 33.1587 43.7991 34.3227C42.4788 36.6512 40.3184 39.7751 36.9749 42.9049C33.6578 46.01 30.1905 47.9237 27.5527 49.0599C26.2353 49.6273 25.1303 49.9984 24.3628 50.2259C24.021 50.3273 23.7467 50.4 23.551 50.4487C23.3108 50.3739 22.9572 50.2599 22.5124 50.1059C21.6181 49.7964 20.359 49.3266 18.9125 48.6897C16.0028 47.4084 12.4117 45.4839 9.4995 42.8815C6.59666 40.2875 4.57139 37.2001 3.26785 34.7361C2.61851 33.5087 2.15472 32.4482 1.85508 31.7001C1.70539 31.3264 1.59705 31.0315 1.52733 30.8339C1.51744 30.8059 1.50834 30.7798 1.5 30.7558V9.43516C1.74944 9.41801 2.027 9.39633 2.33036 9.36891C3.76443 9.23927 5.78085 8.9809 8.13364 8.46522C12.584 7.48979 18.3006 5.58003 23.5531 1.82489C29.4264 5.56501 35.1205 7.48052 39.4158 8.46229C41.6723 8.97807 43.5479 9.23733 44.8682 9.36773Z" stroke="black" stroke-width="3"/>
<circle cx="23.5" cy="25.5" r="12" stroke="black" stroke-width="3"/>
<path d="M18 25.5L21.5 29.5L29 22" stroke="black" stroke-width="3" stroke-linecap="round"/>
</svg>
