<svg width="20" height="15" viewBox="0 0 60 55" fill="none" xmlns="http://www.w3.org/2000/svg">
<circle cx="46.5" cy="39.5" r="13.5" fill="#FFC947"/>
<path d="M43.5 38C43.5 38 58.5 39 58.5 28C58.5 19.1606 51.074 18.0701 48.1568 17.9828C47.5456 17.9645 47.0216 17.4557 46.9922 16.845C46.8153 13.1718 45.0409 2 30 2C14.9652 2 13.1861 13.1628 13.008 16.8405C12.9783 17.4528 12.4517 17.9641 11.8394 17.9928C9.01238 18.1251 2 19.4189 2 29C2 41 17.5 39 17.5 39" stroke="black" stroke-width="3" stroke-linejoin="round"/>
<path d="M42.5 24.7231V50.0949C42.435 50.1271 42.366 50.1609 42.2932 50.196C41.6533 50.505 40.7177 50.9211 39.5557 51.3382C37.2233 52.1755 34.0252 53 30.5 53C26.9748 53 23.7767 52.1755 21.4443 51.3382C20.2823 50.9211 19.3467 50.505 18.7068 50.196C18.634 50.1609 18.565 50.1271 18.5 50.0949V24.7231C18.582 24.6625 18.6738 24.5962 18.7753 24.525C19.3208 24.1424 20.1431 23.6221 21.2187 23.0989C23.3691 22.0527 26.5202 21 30.5 21C34.4798 21 37.6309 22.0527 39.7813 23.0989C40.8569 23.6221 41.6792 24.1424 42.2247 24.525C42.3262 24.5962 42.418 24.6625 42.5 24.7231Z" stroke="black" stroke-width="3"/>
<path d="M19 25C19 25 22.5 29 30.5 29C38.5 29 42.5 25 42.5 25" stroke="black" stroke-width="3" stroke-linecap="round"/>
<path d="M19 33C19 33 22.5 37 30.5 37C38.5 37 42.5 33 42.5 33" stroke="black" stroke-width="3" stroke-linecap="round"/>
<path d="M19 41C19 41 22.5 45 30.5 45C38.5 45 42.5 41 42.5 41" stroke="black" stroke-width="3" stroke-linecap="round"/>
</svg>
