<svg width="700" height="700" viewBox="0 0 700 700" fill="none" xmlns="http://www.w3.org/2000/svg">
<path d="M510 133L598 83V400L510 450V133Z" fill="url(#paint0_linear_150_8797)"/>
<path d="M510 133L422 83V397.5L510 450V133Z" fill="url(#paint1_linear_150_8797)"/>
<path d="M422 83L510 29L598 83L510 133L422 83Z" fill="#515258"/>
<path d="M403 235L490 184V470L403 521V235Z" fill="url(#paint2_linear_150_8797)"/>
<path d="M403 235.035L314 175V480L403 521V235.035Z" fill="url(#paint3_linear_150_8797)"/>
<path d="M314 175L402 131L490 184L403 235L314 175Z" fill="#E7E5E3"/>
<path d="M296 247L383 194V541L296 596V247Z" fill="url(#paint4_linear_150_8797)"/>
<path d="M296 247L211 196V569.5L296 596V247Z" fill="url(#paint5_linear_150_8797)"/>
<path d="M211 196L296 148L383 194L296 247L211 196Z" fill="#D7F890"/>
<path d="M191 522.986L103 470.992V622.974L191 670.998V522.986Z" fill="url(#paint6_linear_150_8797)"/>
<path d="M191 522.839L276 469.992V616.475L191 670.435V522.839Z" fill="url(#paint7_linear_150_8797)"/>
<path d="M103 470.994L191 419L276 469.994L191 522.988L103 470.994Z" fill="#FF8E5E"/>
<defs>
<linearGradient id="paint0_linear_150_8797" x1="541" y1="504" x2="541" y2="126.5" gradientUnits="userSpaceOnUse">
<stop stop-color="#323339"/>
<stop offset="1" stop-color="#3E4049"/>
</linearGradient>
<linearGradient id="paint1_linear_150_8797" x1="471" y1="498.306" x2="471" y2="120.528" gradientUnits="userSpaceOnUse">
<stop stop-color="#242629"/>
<stop offset="1" stop-color="#545660"/>
</linearGradient>
<linearGradient id="paint2_linear_150_8797" x1="451" y1="603" x2="451" y2="225.5" gradientUnits="userSpaceOnUse">
<stop stop-color="#D6D2CD"/>
<stop offset="1" stop-color="#D6D2CD"/>
</linearGradient>
<linearGradient id="paint3_linear_150_8797" x1="355" y1="603.306" x2="355" y2="225.528" gradientUnits="userSpaceOnUse">
<stop stop-color="#D5D1CC"/>
<stop offset="1" stop-color="#C0C0C0"/>
</linearGradient>
<linearGradient id="paint4_linear_150_8797" x1="344" y1="615" x2="344" y2="207" gradientUnits="userSpaceOnUse">
<stop stop-color="#AED659"/>
<stop offset="1" stop-color="#AED659"/>
</linearGradient>
<linearGradient id="paint5_linear_150_8797" x1="260" y1="612.304" x2="260" y2="204" gradientUnits="userSpaceOnUse">
<stop stop-color="#AAD155"/>
<stop offset="1" stop-color="#8CB13F"/>
</linearGradient>
<linearGradient id="paint6_linear_150_8797" x1="151" y1="879.247" x2="151" y2="470.992" gradientUnits="userSpaceOnUse">
<stop stop-color="#F07039"/>
<stop offset="1" stop-color="#E0591F"/>
</linearGradient>
<linearGradient id="paint7_linear_150_8797" x1="231" y1="878.097" x2="231" y2="470.992" gradientUnits="userSpaceOnUse">
<stop stop-color="#F2723C"/>
<stop offset="1" stop-color="#F2723C"/>
</linearGradient>
</defs>
</svg>
